<?xml version="1.0" encoding="UTF-8"?>
<svg version="1.1" xmlns="http://www.w3.org/2000/svg" width="500" height="500">
<path d="M0 0 C165 0 330 0 500 0 C500 165 500 330 500 500 C335 500 170 500 0 500 C0 335 0 170 0 0 Z " fill="#000000" transform="translate(0,0)"/>
<path d="M0 0 C4.93054827 2.71683272 9.46284362 5.66657898 14 9 C14.33 6.03 14.66 3.06 15 0 C19.81871024 1.56332202 23.30555509 4.3110332 27.25 7.375 C33.02473117 11.78643011 38.86057477 16.08050883 44.8125 20.25 C51.25791294 24.76817647 57.65530214 29.34082663 64 34 C62.64492915 37.16790156 61.31217904 38.80615319 58.5 40.77734375 C57.42951416 41.53809204 57.42951416 41.53809204 56.33740234 42.31420898 C55.56605957 42.84989502 54.7947168 43.38558105 54 43.9375 C52.36703568 45.09353558 50.73422777 46.24979212 49.1015625 47.40625 C48.26012695 47.99792969 47.41869141 48.58960938 46.55175781 49.19921875 C42.469684 52.07994745 38.42312083 55.00935357 34.375 57.9375 C33.65441406 58.45626709 32.93382812 58.97503418 32.19140625 59.50952148 C31.49660156 60.01040283 30.80179688 60.51128418 30.0859375 61.02734375 C29.41272461 61.51187012 28.73951172 61.99639648 28.04589844 62.49560547 C26.6167582 63.54648401 25.20445135 64.6204713 23.80566406 65.71142578 C23.09893555 66.26169434 22.39220703 66.81196289 21.6640625 67.37890625 C21.03193848 67.88107666 20.39981445 68.38324707 19.74853516 68.90063477 C18 70 18 70 15 70 C15 67.03 15 64.06 15 61 C13.64455078 61.97453125 13.64455078 61.97453125 12.26171875 62.96875 C11.07057362 63.81286859 9.87915294 64.65659845 8.6875 65.5 C7.79514648 66.14388672 7.79514648 66.14388672 6.88476562 66.80078125 C2.33984375 70 2.33984375 70 -1 70 C-1 66.7 -1 63.4 -1 60 C-2.37285156 60.97453125 -2.37285156 60.97453125 -3.7734375 61.96875 C-4.97378605 62.81274508 -6.17431634 63.65648173 -7.375 64.5 C-8.27992187 65.14388672 -8.27992187 65.14388672 -9.203125 65.80078125 C-13.7734375 69 -13.7734375 69 -16 69 C-16 46.56 -16 24.12 -16 1 C-12.57209224 2.71395388 -9.46716436 4.55682291 -6.25 6.625 C-4.77273437 7.57246094 -4.77273437 7.57246094 -3.265625 8.5390625 C-2.51796875 9.02117187 -1.7703125 9.50328125 -1 10 C-1.01160156 9.36191406 -1.02320312 8.72382813 -1.03515625 8.06640625 C-1.04417969 7.24011719 -1.05320312 6.41382813 -1.0625 5.5625 C-1.07410156 4.73878906 -1.08570312 3.91507813 -1.09765625 3.06640625 C-1 1 -1 1 0 0 Z " fill="#0B0B0B" transform="translate(90,189)"/>
<path d="M0 0 C2.80529504 1.40264752 5.07164722 2.65442909 7.58203125 4.43359375 C8.25919189 4.91207764 8.93635254 5.39056152 9.6340332 5.88354492 C10.35292725 6.3963501 11.07182129 6.90915527 11.8125 7.4375 C12.56297607 7.97028564 13.31345215 8.50307129 14.08666992 9.05200195 C25.52168052 17.19166901 36.79406035 25.548593 48 34 C44.27427224 38.0943158 39.86141235 41.1205988 35.375 44.3125 C34.56321289 44.89427002 33.75142578 45.47604004 32.91503906 46.07543945 C28.13770803 49.4939001 23.34557471 52.89056366 18.515625 56.234375 C16.44884942 57.68496904 14.40141576 59.15569485 12.359375 60.640625 C11.72161133 61.10251221 11.08384766 61.56439941 10.42675781 62.0402832 C9.1628667 62.95681245 7.90169288 63.87710309 6.64355469 64.80151367 C2.22319564 68 2.22319564 68 0 68 C0 45.56 0 23.12 0 0 Z " fill="#F7F7F7" transform="translate(74,190)"/>
<path d="M0 0 C1.98 0 3.96 0 6 0 C6 20.13 6 40.26 6 61 C4.02 61 2.04 61 0 61 C-0.495 58.525 -0.495 58.525 -1 56 C-1.763125 56.639375 -2.52625 57.27875 -3.3125 57.9375 C-7.70236447 61.30646576 -11.75198569 61.52258093 -17.13671875 61.47265625 C-22.11046915 60.65161423 -24.92038621 57.83442109 -28 54 C-31.24667816 48.6226893 -32.15393023 43.15429454 -31 37 C-28.4176384 31.32057931 -24.76447258 26.59966411 -19 24 C-13.2555745 23.10987281 -8.97546282 23.87587218 -4 27 C-2.68 27.99 -1.36 28.98 0 30 C0 20.1 0 10.2 0 0 Z " fill="#E8E8E8" transform="translate(378,192)"/>
<path d="M0 0 C6.13798603 2.38928315 11.05699628 7.11399255 14 13 C14.75881778 18.70554132 14.88303198 23.57324799 11.4375 28.375 C10.33261169 29.62088334 9.18671229 30.8317888 8 32 C7.49339844 32.52851563 6.98679687 33.05703125 6.46484375 33.6015625 C2.02974503 37.50270585 -2.43829166 37.68356697 -8.1953125 37.41796875 C-14.73685735 36.44311457 -18.25910084 32.02349316 -22 27 C-23.99653601 21.01039198 -24.07712301 14.27852945 -21.375 8.5625 C-14.76288397 1.42837481 -9.85589115 -1.17205192 0 0 Z " fill="#EBEBEB" transform="translate(326,216)"/>
<path d="M0 0 C5.6539867 2.55411755 9.99148631 6.78766012 12.7734375 12.3515625 C12.7734375 14.9915625 12.7734375 17.6315625 12.7734375 20.3515625 C2.5434375 20.3515625 -7.6865625 20.3515625 -18.2265625 20.3515625 C-15.66634635 26.1014346 -15.66634635 26.1014346 -11.2265625 29.3515625 C-7.84703149 29.96152663 -4.61745291 29.87792621 -1.2265625 29.3515625 C1.44742226 27.41258371 1.44742226 27.41258371 3.7734375 25.3515625 C7.5859375 25.1015625 7.5859375 25.1015625 10.7734375 25.3515625 C8.83410654 30.11173848 5.70095976 33.41021442 1.0859375 35.6640625 C-4.81546897 36.88888271 -10.02922878 37.4294998 -15.5390625 34.7265625 C-19.9947754 30.78895575 -24.59144731 26.34688014 -25.5625 20.23828125 C-25.66236942 14.61563294 -24.84094092 10.7411989 -21.2265625 6.3515625 C-14.80928993 0.02004413 -9.12361189 -2.65705188 0 0 Z " fill="#E9E9E9" transform="translate(418.2265625,216.6484375)"/>
<path d="M0 0 C2.89752083 1.35978905 5.38961282 2.9180112 7.94921875 4.8359375 C9.08580933 5.68200562 9.08580933 5.68200562 10.24536133 6.54516602 C11.05126709 7.14901123 11.85717285 7.75285645 12.6875 8.375 C19.84426714 13.70027563 27.05957324 18.92154008 34.39135742 24.00341797 C38.43723654 26.82556517 42.25435196 29.78861493 46 33 C42.51625543 36.65760983 38.97456276 39.596004 34.8125 42.5 C33.57767338 43.36784734 32.34332328 44.23637298 31.109375 45.10546875 C30.12227539 45.79842041 30.12227539 45.79842041 29.11523438 46.50537109 C25.24144538 49.24259827 21.40412278 52.03040304 17.5625 54.8125 C15.3868661 56.38673342 13.2109219 57.96046853 11.03173828 59.52978516 C9.6754584 60.511222 8.32484272 61.50053357 6.97998047 62.49755859 C2.2144442 66 2.2144442 66 0 66 C-0.56757304 62.84815824 -0.70012736 60.13960425 0 57 C2.49408948 54.00481491 5.56171704 52.04961293 8.8125 49.9375 C10.11078735 49.04297119 10.11078735 49.04297119 11.43530273 48.13037109 C13.1568271 46.94492204 14.88597498 45.77045771 16.62304688 44.60791016 C19.67936614 42.540437 22.61459616 40.34380997 25.5625 38.125 C29.75313808 35 29.75313808 35 32 35 C30.65312365 31.85365323 29.35718179 30.23076804 26.54296875 28.30078125 C25.8480835 27.81851074 25.15319824 27.33624023 24.43725586 26.83935547 C23.69483643 26.33549316 22.95241699 25.83163086 22.1875 25.3125 C21.43154541 24.78285645 20.67559082 24.25321289 19.89672852 23.70751953 C16.3210663 21.21280143 12.72793433 18.80219533 8.984375 16.56640625 C0.37835028 11.31866201 0.37835028 11.31866201 -0.796875 7.22265625 C-0.81118183 4.67246378 -0.60386397 2.47222942 0 0 Z " fill="#080808" transform="translate(106,191)"/>
<path d="M0 0 C3.43403788 2.00011167 6.21175747 4.42351494 8 8 C8.3501723 13.34012755 8.48069602 16.67913597 5 21 C2.72260535 23.55344249 1.05671938 24.80915436 -2.3359375 25.421875 C-6.75442656 25.66071225 -9.98313878 25.5390091 -13.5 22.6875 C-17.44367236 18.44805221 -18.55299459 15.99326905 -18.4609375 10.359375 C-17.66273319 6.27365124 -15.07143456 3.67358034 -12 1 C-8.24289828 -0.87855086 -4.08021262 -0.66379578 0 0 Z " fill="#080808" transform="translate(326,222)"/>
<path d="M0 0 C4.12326498 1.7409341 6.69835882 4.16393137 9 8 C9.60841549 12.79127195 9.53169152 14.93661695 7.375 19.25 C4.40657989 22.68711802 1.76493952 25.72839494 -2.98828125 26.1953125 C-6.97484498 25.9400523 -8.72794904 25.22473775 -11.875 22.625 C-15.5105578 18.13401683 -16.39084929 15.84254419 -16.25390625 10.21875 C-15.80068428 6.25828727 -13.95409421 4.064182 -11.375 1.1875 C-7.6486998 -0.6756501 -4.08205599 -0.53403241 0 0 Z " fill="#070707" transform="translate(369,222)"/>
<path d="M0 0 C5.02629971 2.26619293 8.94440508 5.62453952 11.83984375 10.3515625 C11.83984375 11.3415625 11.83984375 12.3315625 11.83984375 13.3515625 C9.08984375 13.6640625 9.08984375 13.6640625 5.83984375 13.3515625 C3.65234375 10.9765625 3.65234375 10.9765625 1.83984375 8.3515625 C-2.182596 5.669936 -5.43280627 5.66198421 -10.16015625 6.3515625 C-13.49615992 8.40994775 -14.98637385 10.0908889 -17.16015625 13.3515625 C-17.95100353 17.27538172 -17.86062286 20.83756183 -16.16796875 24.49609375 C-14.03636612 27.45263864 -12.32705888 29.05889275 -8.74609375 29.95703125 C-5.24223641 30.15286618 -2.40170826 30.15362707 0.60546875 28.2109375 C1.0953125 27.76234375 1.58515625 27.31375 2.08984375 26.8515625 C4.83984375 24.3515625 4.83984375 24.3515625 8.21484375 24.0390625 C9.08109375 24.1421875 9.94734375 24.2453125 10.83984375 24.3515625 C10.26054599 28.26182241 8.53366825 30.51212586 5.83984375 33.3515625 C0.43019531 37.27355762 -5.7400776 37.24899285 -12.16015625 36.3515625 C-17.2798286 34.34821245 -20.60594422 30.21575091 -23.28125 25.52734375 C-25.34097377 20.42838313 -24.58774641 15.90157684 -23.16015625 10.7265625 C-17.93750031 1.9133306 -10.21832861 -3.06734638 0 0 Z " fill="#EAEAEA" transform="translate(284.16015625,216.6484375)"/>
<path d="M0 0 C2.5625 2.1875 2.5625 2.1875 4.5625 5.1875 C4.5625 6.1775 4.5625 7.1675 4.5625 8.1875 C2.2525 8.1875 -0.0575 8.1875 -2.4375 8.1875 C-2.7675 7.1975 -3.0975 6.2075 -3.4375 5.1875 C-6.42344424 3.69452788 -9.14603624 4.06994772 -12.4375 4.1875 C-13.4275 4.6825 -13.4275 4.6825 -14.4375 5.1875 C-14.4375 6.8375 -14.4375 8.4875 -14.4375 10.1875 C-10.79532527 12.20028077 -7.30972971 13.54882277 -3.3125 14.625 C3.51480405 16.65057063 3.51480405 16.65057063 5.5625 20.1875 C6.16770743 23.31930153 6.22548218 26.0620126 5.5625 29.1875 C3.38090855 31.94319447 1.69072506 33.62338747 -1.4375 35.1875 C-14.9049946 36.39612131 -14.9049946 36.39612131 -19.3125 33 C-21.4375 30.1875 -21.4375 30.1875 -21.8125 27.375 C-21.68875 26.653125 -21.565 25.93125 -21.4375 25.1875 C-18.625 24.875 -18.625 24.875 -15.4375 25.1875 C-14.98375 26.0125 -14.53 26.8375 -14.0625 27.6875 C-12.75101464 30.34675179 -12.75101464 30.34675179 -10.5859375 30.58984375 C-6.58932408 30.65524288 -4.87279163 30.47769442 -1.4375 28.1875 C-1.18719023 25.60369823 -1.18719023 25.60369823 -1.4375 23.1875 C-2.79138533 22.58270315 -4.14562632 21.97870246 -5.5 21.375 C-6.31984375 21.00632813 -7.1396875 20.63765625 -7.984375 20.2578125 C-9.45949277 19.61421016 -10.94666912 18.9960682 -12.453125 18.4296875 C-16.71810797 16.81641133 -19.13165645 15.15355091 -21.4375 11.1875 C-22.07644172 7.3538497 -21.78887165 5.76010565 -19.75 2.4375 C-14.22912529 -2.93416188 -6.70493986 -3.53533192 0 0 Z " fill="#E9E9E9" transform="translate(193.4375,217.8125)"/>
<path d="M0 0 C4.25922824 1.44565046 7.24974103 3.57297922 10.75 6.375 C15.92965845 10.4603857 21.22113572 14.34139386 26.625 18.125 C33.13380154 22.6840059 39.59455787 27.2962196 46 32 C44.64492915 35.16790156 43.31217904 36.80615319 40.5 38.77734375 C39.78634277 39.28450928 39.07268555 39.7916748 38.33740234 40.31420898 C37.56605957 40.84989502 36.7947168 41.38558105 36 41.9375 C34.36703568 43.09353558 32.73422777 44.24979212 31.1015625 45.40625 C30.26012695 45.99792969 29.41869141 46.58960938 28.55175781 47.19921875 C24.469684 50.07994745 20.42312083 53.00935357 16.375 55.9375 C15.65441406 56.45626709 14.93382812 56.97503418 14.19140625 57.50952148 C13.49660156 58.01040283 12.80179688 58.51128418 12.0859375 59.02734375 C11.07611816 59.7541333 11.07611816 59.7541333 10.04589844 60.49560547 C8.6167582 61.54648401 7.20445135 62.6204713 5.80566406 63.71142578 C5.09893555 64.26169434 4.39220703 64.81196289 3.6640625 65.37890625 C3.03193848 65.88107666 2.39981445 66.38324707 1.74853516 66.90063477 C0 68 0 68 -3 68 C-3 65.03 -3 62.06 -3 59 C-4.35544922 59.97453125 -4.35544922 59.97453125 -5.73828125 60.96875 C-6.92942638 61.81286859 -8.12084706 62.65659845 -9.3125 63.5 C-10.20485352 64.14388672 -10.20485352 64.14388672 -11.11523438 64.80078125 C-15.66015625 68 -15.66015625 68 -19 68 C-19.33 64.37 -19.66 60.74 -20 57 C-18.659375 56.113125 -17.31875 55.22625 -15.9375 54.3125 C-12.92694917 52.31338028 -9.97241392 50.26753155 -7.0625 48.125 C-4 46 -4 46 -2 46 C-2 48.97 -2 51.94 -2 55 C4.93 50.05 4.93 50.05 12 45 C12.99 45.495 12.99 45.495 14 46 C11.87657342 47.64789866 9.7513551 49.29338788 7.625 50.9375 C7.02171875 51.40607422 6.4184375 51.87464844 5.796875 52.35742188 C1.2265625 55.88671875 1.2265625 55.88671875 -1 57 C-1.46651207 59.12576782 -1.46651207 59.12576782 -1.625 61.5625 C-1.69976562 62.38878906 -1.77453125 63.21507812 -1.8515625 64.06640625 C-1.90054688 64.70449219 -1.94953125 65.34257812 -2 66 C8.01494217 59.25993079 17.92002761 52.42873893 27.53515625 45.12695312 C32.59860074 41.28267816 37.74886258 37.58491113 43 34 C39.51625543 30.34239017 35.97456276 27.403996 31.8125 24.5 C30.57904338 23.63205546 29.34599173 22.76353519 28.11328125 21.89453125 C27.12642334 21.20157959 27.12642334 21.20157959 26.11962891 20.49462891 C22.22834744 17.75074211 18.36393835 14.96969405 14.5 12.1875 C13.7469458 11.64867187 12.9938916 11.10984375 12.21801758 10.5546875 C8.00245356 7.51997088 3.89863742 4.43598266 0 1 C0 0.67 0 0.34 0 0 Z " fill="#9B9B9B" transform="translate(108,191)"/>
<path d="M0 0 C1.98 0 3.96 0 6 0 C6 20.13 6 40.26 6 61 C4.02 61 2.04 61 0 61 C0 40.87 0 20.74 0 0 Z " fill="#E6E6E6" transform="translate(226,192)"/>
<path d="M0 0 C4.93054827 2.71683272 9.46284362 5.66657898 14 9 C14.33 6.03 14.66 3.06 15 0 C15.99 0.33 16.98 0.66 18 1 C17.01 1.495 17.01 1.495 16 2 C16 5.3 16 8.6 16 12 C17.10251099 12.4007373 17.10251099 12.4007373 18.22729492 12.80957031 C20.9470788 13.97727888 23.00046609 15.27906664 25.36328125 17.046875 C26.16830078 17.645 26.97332031 18.243125 27.80273438 18.859375 C28.63095703 19.48328125 29.45917969 20.1071875 30.3125 20.75 C31.53743164 21.66265625 31.53743164 21.66265625 32.78710938 22.59375 C34.40827565 23.80284293 36.02570375 25.01696591 37.63916016 26.23632812 C39.20655891 27.40725766 40.78972968 28.55738026 42.38818359 29.68554688 C43.1198877 30.20697266 43.8515918 30.72839844 44.60546875 31.265625 C45.2605542 31.72227539 45.91563965 32.17892578 46.59057617 32.64941406 C47.28824097 33.3179541 47.28824097 33.3179541 48 34 C48 34.99 48 35.98 48 37 C45.70056957 38.86242133 43.44213863 40.53504905 41 42.1875 C40.33226562 42.65091797 39.66453125 43.11433594 38.9765625 43.59179688 C37.32390133 44.73685497 35.66272331 45.86960265 34 47 C33.01 46.505 33.01 46.505 32 46 C32.9384375 45.30132812 33.876875 44.60265625 34.84375 43.8828125 C36.0627504 42.96387374 37.28148685 42.04458477 38.5 41.125 C39.12003906 40.66480469 39.74007812 40.20460937 40.37890625 39.73046875 C41.95635892 38.53437826 43.48261798 37.27143274 45 36 C45 35.34 45 34.68 45 34 C43.568627 32.71369461 43.568627 32.71369461 41.66796875 31.4609375 C40.95632568 30.96625977 40.24468262 30.47158203 39.51147461 29.96191406 C38.74456299 29.43823242 37.97765137 28.91455078 37.1875 28.375 C35.62976925 27.29490382 34.0724784 26.21417293 32.515625 25.1328125 C31.36416992 24.33665527 31.36416992 24.33665527 30.18945312 23.52441406 C25.738309 20.42529007 21.3714729 17.21015288 17 14 C16.67 16.97 16.34 19.94 16 23 C13.21641466 21.60820733 11.0140947 20.39906839 8.546875 18.6171875 C7.928125 18.17246094 7.309375 17.72773438 6.671875 17.26953125 C6.03765625 16.80933594 5.4034375 16.34914062 4.75 15.875 C3.77546875 15.17310547 3.77546875 15.17310547 2.78125 14.45703125 C1.18564517 13.30725718 -0.40743025 12.15397434 -2 11 C-1.85957123 9.35369672 -1.71250671 7.70795821 -1.5625 6.0625 C-1.48128906 5.14597656 -1.40007812 4.22945312 -1.31640625 3.28515625 C-1 1 -1 1 0 0 Z " fill="#A6A6A6" transform="translate(90,189)"/>
<path d="M0 0 C1.98 0 3.96 0 6 0 C6 11.88 6 23.76 6 36 C4.02 36 2.04 36 0 36 C0 24.12 0 12.24 0 0 Z " fill="#E6E6E6" transform="translate(208,217)"/>
<path d="M0 0 C1.98 0 3.96 0 6 0 C6 11.55 6 23.1 6 35 C4.02 35 2.04 35 0 35 C0 23.45 0 11.9 0 0 Z " fill="#E3E3E3" transform="translate(244,217)"/>
<path d="M0 0 C2.7844834 1.37263266 3.89251586 2.56828753 6 5 C6.33 6.65 6.66 8.3 7 10 C-0.92 10 -8.84 10 -17 10 C-16.0570981 5.28549049 -15.66535232 3.78364092 -11.94140625 0.95703125 C-8.06001175 -0.95633224 -4.17514051 -0.84585505 0 0 Z " fill="#0B0B0B" transform="translate(417,222)"/>
<path d="M0 0 C2.23481917 1.46066612 4.45766207 2.93408519 6.6640625 4.4375 C8.41890748 5.61130935 10.2294355 6.70253457 12.0625 7.75 C14.85952963 10.99816345 14.38601526 13.79649827 14.17578125 17.953125 C14.11777344 18.62859375 14.05976562 19.3040625 14 20 C8.56030781 17.98064713 3.74147018 15.54092962 0 11 C-0.75305663 7.21436397 -0.55716288 3.80384042 0 0 Z " fill="#0D0D0D" transform="translate(91,191)"/>
<path d="M0 0 C0.88135882 3.60829808 1.08886618 6.42158979 0 10 C-9.64568082 19 -9.64568082 19 -14 19 C-14.64836838 15.48440255 -14.83288079 12.49512476 -14 9 C-10.66886237 5.27660885 -5.30482765 0 0 0 Z " fill="#0C0C0C" transform="translate(105,238)"/>
<path d="M0 0 C0.66 0.33 1.32 0.66 2 1 C-0.12342658 2.64789866 -2.2486449 4.29338788 -4.375 5.9375 C-4.97828125 6.40607422 -5.5815625 6.87464844 -6.203125 7.35742188 C-10.7734375 10.88671875 -10.7734375 10.88671875 -13 12 C-13.4683265 14.58605332 -13.4683265 14.58605332 -13.625 17.5625 C-13.69976562 18.57441406 -13.77453125 19.58632812 -13.8515625 20.62890625 C-13.90054688 21.41136719 -13.94953125 22.19382812 -14 23 C-14.33 23 -14.66 23 -15 23 C-15 20.03 -15 17.06 -15 14 C-15.90363281 14.6496875 -16.80726562 15.299375 -17.73828125 15.96875 C-18.92942638 16.81286859 -20.12084706 17.65659845 -21.3125 18.5 C-21.90740234 18.92925781 -22.50230469 19.35851562 -23.11523438 19.80078125 C-27.66015625 23 -27.66015625 23 -31 23 C-31.33 19.37 -31.66 15.74 -32 12 C-31.01 11.67 -30.02 11.34 -29 11 C-28.67 13.97 -28.34 16.94 -28 20 C-27.22914062 19.4225 -26.45828125 18.845 -25.6640625 18.25 C-24.15972656 17.13625 -24.15972656 17.13625 -22.625 16 C-21.62726563 15.2575 -20.62953125 14.515 -19.6015625 13.75 C-17 12 -17 12 -15 12 C-15.33 8.37 -15.66 4.74 -16 1 C-15.34 1 -14.68 1 -14 1 C-14 3.97 -14 6.94 -14 10 C-9.38 6.7 -4.76 3.4 0 0 Z " fill="#AFAFAF" transform="translate(120,236)"/>
<path d="M0 0 C0.33 2.97 0.66 5.94 1 9 C4.63 6.36 8.26 3.72 12 1 C12.66 1.66 13.32 2.32 14 3 C11.90160347 4.50869023 9.79700219 6.00698357 7.6875 7.5 C7.09259766 7.92925781 6.49769531 8.35851562 5.88476562 8.80078125 C1.33984375 12 1.33984375 12 -2 12 C-2.33 8.37 -2.66 4.74 -3 1 C-1 0 -1 0 0 0 Z " fill="#939393" transform="translate(91,247)"/>
<path d="M0 0 C4.93054827 2.71683272 9.46284362 5.66657898 14 9 C13.67 9.66 13.34 10.32 13 11 C9.37 8.36 5.74 5.72 2 3 C1.67 5.97 1.34 8.94 1 12 C0.01 11.34 -0.98 10.68 -2 10 C-1.85950482 8.52031676 -1.71245174 7.04125484 -1.5625 5.5625 C-1.48128906 4.73878906 -1.40007812 3.91507813 -1.31640625 3.06640625 C-1 1 -1 1 0 0 Z " fill="#939393" transform="translate(90,189)"/>
<path d="M0 0 C1.2065625 0.0309375 1.2065625 0.0309375 2.4375 0.0625 C3.0625 2.4375 3.0625 2.4375 3.4375 5.0625 C2.7775 5.7225 2.1175 6.3825 1.4375 7.0625 C0.1175 7.0625 -1.2025 7.0625 -2.5625 7.0625 C-2.94383299 5.0710944 -3.27575582 3.06970923 -3.5625 1.0625 C-2.5625 0.0625 -2.5625 0.0625 0 0 Z " fill="#DEDEDE" transform="translate(247.5625,203.9375)"/>
<path d="M0 0 C1.2065625 0.0309375 1.2065625 0.0309375 2.4375 0.0625 C2.81968767 1.71864657 3.15145102 3.38707024 3.4375 5.0625 C2.4375 6.0625 2.4375 6.0625 -0.125 6.125 C-1.3315625 6.0940625 -1.3315625 6.0940625 -2.5625 6.0625 C-2.94468767 4.40635343 -3.27645102 2.73792976 -3.5625 1.0625 C-2.5625 0.0625 -2.5625 0.0625 0 0 Z " fill="#E6E6E6" transform="translate(210.5625,203.9375)"/>
<path d="M0 0 C0 0.33 0 0.66 0 1 C-1.6396875 1.37125 -1.6396875 1.37125 -3.3125 1.75 C-7.05908409 3.02002851 -8.10595266 3.65756352 -10 7 C-10.1875 4.625 -10.1875 4.625 -10 2 C-6.3558226 -0.4294516 -4.28758728 -0.16179575 0 0 Z " fill="#353535" transform="translate(188,221)"/>
<path d="M0 0 C0.66 0.33 1.32 0.66 2 1 C-0.31 3.31 -2.62 5.62 -5 8 C-5.33 7.34 -5.66 6.68 -6 6 C-4 4 -2 2 0 0 Z " fill="#343434" transform="translate(360,222)"/>
</svg>
